<?xml version="1.0" encoding="utf-8"?>
<!-- Generator: Adobe Illustrator 27.7.0, SVG Export Plug-In . SVG Version: 6.00 Build 0)  -->
<svg version="1.1" id="Layer_1" xmlns="http://www.w3.org/2000/svg" xmlns:xlink="http://www.w3.org/1999/xlink" x="0px" y="0px"
	 viewBox="0 0 204.37 99.54" style="enable-background:new 0 0 204.37 99.54;" xml:space="preserve">
<g>
	<path d="M125.96,3.51c0.04-1.71-0.79-2.57-2.51-2.57h-15.29c-1.42,0-2.57,1.15-2.57,2.57V34.6c-5.32-3.87-11.58-5.8-18.79-5.8
		c-10.41,0-18.93,3.23-25.54,9.69c-6.61,6.46-9.92,14.88-9.92,25.25c0,10.28,3.3,18.67,9.89,25.15c6.59,6.48,15.12,9.72,25.58,9.72
		c9.01,0,16.48-2.83,22.41-8.5c2.63,4.91,7.25,7.69,13.86,8.35c1.58,0.16,2.96-1.09,2.95-2.68L125.96,3.51z M100.88,77.45
		c-3.14,3.56-7.24,5.34-12.29,5.34c-5.14,0-9.33-1.78-12.56-5.34c-3.23-3.56-4.84-8.13-4.84-13.71c0-5.67,1.62-10.27,4.84-13.81
		c3.23-3.54,7.42-5.31,12.56-5.31c5.05,0,9.15,1.77,12.29,5.31c3.14,3.54,4.71,8.14,4.71,13.81
		C105.59,69.32,104.02,73.89,100.88,77.45"/>
	<path d="M168.44,98.61c-11.07,0-20.03-3.2-26.86-9.59c-6.83-6.39-10.25-14.82-10.25-25.28c0-10.55,3.31-19.01,9.92-25.38
		c6.61-6.37,15.28-9.56,26-9.56c10.81,0,19.38,3.15,25.71,9.46c6.33,6.31,9.49,14.62,9.49,24.95c0,0.53-0.02,1.3-0.07,2.31
		c-0.04,1.01-0.07,1.78-0.07,2.31c-0.26,1.54-1.21,2.31-2.83,2.31h-48.45c1.1,4.04,3.24,7.23,6.43,9.56
		c3.19,2.33,6.98,3.49,11.37,3.49c4.97,0,8.66-1.34,11.07-4.02c1.19-0.88,2.26-1.34,3.23-1.38h15.16c1.01,0,1.71,0.25,2.11,0.76
		c0.39,0.51,0.39,1.15,0,1.94c-2.33,5.58-6.33,10-12,13.25C182.74,96.98,176.08,98.61,168.44,98.61 M150.9,58.07h32.23
		c-0.18-4.22-1.66-7.66-4.45-10.32c-2.79-2.66-6.43-3.99-10.91-3.99c-4.39,0-8.15,1.33-11.27,3.99
		C153.38,50.41,151.52,53.85,150.9,58.07 M160.2,22.82c-0.88,0-1.53-0.3-1.94-0.89c-0.42-0.59-0.38-1.29,0.1-2.08l8.9-16.61
		c0.61-1.27,1.6-1.91,2.97-1.91h15.89c1.01,0,1.67,0.27,1.98,0.82c0.31,0.55,0.16,1.31-0.46,2.27l-11.47,16.88
		c-0.7,1.01-1.74,1.52-3.1,1.52H160.2z"/>
	<path d="M57.49,32.96c1.28-1.33,0.5-3.54-1.33-3.8c-1.48-0.21-3.21-0.36-5.03-0.36c-9.1,0-16.44,3.05-22.02,9.16
		c-2.81-6.11-8.26-9.16-16.35-9.16c-3.3,0-5.64,0.55-8.8,1.65c-1.36,0.44-2.04,1.43-2.04,2.97v11.07c0,1.41,0.99,2.11,2.97,2.11
		c1.62-0.26,2.61-0.4,2.97-0.4c3.51,0,4.39,1.76,4.39,5.27v42.39c0,1.42,1.15,2.57,2.57,2.57h15.1c1.42,0,2.57-1.15,2.57-2.57v-29
		c0-5.41,1.67-9.68,5.01-12.82c2.81-2.64,6.28-4.17,10.42-4.59c0.94-0.1,1.72-0.74,1.99-1.65C51.61,39.92,54.97,35.58,57.49,32.96"
		/>
</g>
</svg>
