<?xml version="1.0" encoding="utf-8"?>
<!-- Generator: Adobe Illustrator 27.8.1, SVG Export Plug-In . SVG Version: 6.00 Build 0)  -->
<svg version="1.1" id="Layer_1" xmlns="http://www.w3.org/2000/svg" xmlns:xlink="http://www.w3.org/1999/xlink" x="0px" y="0px"
	 viewBox="0 0 213.6 99.5" style="enable-background:new 0 0 213.6 99.5;" xml:space="preserve">
<style type="text/css">
	.st0{fill:#FFFFFF;}
</style>
<g>
	<g>
		<path class="st0" d="M133.9,2.1H119c-1.4,0-2.5,1.1-2.5,2.5V35c-5.2-3.8-11.3-5.7-18.3-5.7c-10.2,0-18.5,3.2-24.9,9.5
			c-6.5,6.3-9.7,14.5-9.7,24.7c0,10,3.2,18.2,9.7,24.6s14.8,9.5,25,9.5c8.8,0,16.1-2.8,21.9-8.3c2.6,4.8,7.1,7.5,13.5,8.2
			c1.5,0.2,2.9-1.1,2.9-2.6l-0.1-90.1C136.4,2.9,135.6,2.1,133.9,2.1z M111.9,76.8c-3.1,3.5-7.1,5.2-12,5.2c-5,0-9.1-1.7-12.3-5.2
			s-4.7-7.9-4.7-13.4c0-5.5,1.6-10,4.7-13.5c3.2-3.5,7.2-5.2,12.3-5.2c4.9,0,8.9,1.7,12,5.2c3.1,3.5,4.6,7.9,4.6,13.5
			C116.5,68.9,115,73.3,111.9,76.8z"/>
		<path class="st0" d="M201.8,38.5c-6.2-6.2-14.6-9.2-25.1-9.2c-10.5,0-18.9,3.1-25.4,9.3c-6.5,6.2-9.7,14.5-9.7,24.8
			c0,10.2,3.3,18.4,10,24.7s15.4,9.4,26.2,9.4c7.5,0,14-1.6,19.5-4.8c5.5-3.2,9.4-7.5,11.7-12.9c0.4-0.8,0.4-1.4,0-1.9
			c-0.4-0.5-1.1-0.7-2.1-0.7h-14.8c-0.9,0-2,0.5-3.2,1.3c-2.4,2.6-6,3.9-10.8,3.9c-4.3,0-8-1.1-11.1-3.4c-3.1-2.3-5.2-5.4-6.3-9.3
			h47.3c1.6,0,2.5-0.8,2.8-2.3c0-0.5,0-1.3,0.1-2.3c0-1,0.1-1.7,0.1-2.3C211.1,52.8,208,44.7,201.8,38.5z M160.7,57.9
			c0.6-4.1,2.4-7.5,5.5-10.1c3-2.6,6.7-3.9,11-3.9c4.4,0,7.9,1.3,10.7,3.9c2.7,2.6,4.2,6,4.3,10.1H160.7z"/>
		<path class="st0" d="M169.8,23.4h12.6c1.3,0,2.3-0.5,3-1.5l11.2-16.5c0.6-0.9,0.8-1.7,0.4-2.2c-0.3-0.5-0.9-0.8-1.9-0.8h-15.5
			c-1.3,0-2.3,0.6-2.9,1.9L168,20.5c-0.5,0.8-0.5,1.5-0.1,2C168.3,23.2,169,23.4,169.8,23.4z"/>
		<path class="st0" d="M64.9,32c-4.2-2.2-9.1-2.9-14.3-2.9c-3,0-5.9,0.5-8.7,1.3c-5,1.4-9.2,4-12.8,7.8c-2.7-6-8.1-8.9-16-8.9
			c-3.2,0-5.5,0.5-8.6,1.6c-1.3,0.4-2,1.4-2,2.9v10.8c0,1.4,1,2.1,2.9,2.1C7,46.4,8,46.3,8.4,46.3c3.4,0,4.3,1.7,4.3,5.1v41.4
			c0,1.4,1.1,2.5,2.5,2.5h14.7c1.4,0,2.5-1.1,2.5-2.5V64.5c0-5,1.5-9.1,4.4-12.1c3.3-3.1,7.8-5,12.8-5c1.9,0,3.8,0.5,5.5,1.1
			c1.3,0.5,2.7-0.1,3.2-1.4c1.6-4,4.2-8.1,7.2-11.2C66.7,34.7,66.4,32.8,64.9,32z"/>
	</g>
</g>
</svg>
